# xmcd CD database file
#
# Track frame offsets:
#	150
#	34787
#	66032
#	103779
#	130000
#	160205
#	196865
#	222070
#	261780
#
# Disc length: 3856 seconds
#
# Revision: 0
# Processed by: cddbd v1.5.1PL2 Copyright (c) Steve Scherf et al.
# Submitted via: CDex 1.51
#
DISCID=770f0e09
DTITLE=Carlos Garnett - Under nubian skies
DYEAR=1997
DGENRE=Jazz
TTITLE0=Dancing Daffodils
TTITLE1=Blues for John C.
TTITLE2=My One and Only Love
TTITLE3=Happy Children Song
TTITLE4=What
TTITLE5=Under Nubian Skies
TTITLE6=Epitapher Zackerism
TTITLE7=Mango Walk
TTITLE8=Down and Up Again
EXTD=YEAR: 1997
EXTT0=
EXTT1=
EXTT2=
EXTT3=
EXTT4=
EXTT5=
EXTT6=
EXTT7=
EXTT8=
PLAYORDER=
